<svg width="256" height="256" viewBox="0 0 256 256" fill="none" xmlns="http://www.w3.org/2000/svg">
  <rect width="256" height="256" rx="32" fill="url(#gradient)"/>
  <defs>
    <linearGradient id="gradient" x1="0%" y1="0%" x2="100%" y2="100%">
      <stop offset="0%" style="stop-color:#667eea;stop-opacity:1" />
      <stop offset="100%" style="stop-color:#764ba2;stop-opacity:1" />
    </linearGradient>
  </defs>
  
  <!-- Cerveau stylisé -->
  <path d="M80 120c0-22 18-40 40-40s40 18 40 40c0 11-4 21-11 29-3 4-3 10 1 14s10 3 14-1c9-11 14-24 14-38 0-30-24-54-54-54s-54 24-54 54c0 14 5 27 14 38 4 4 10 4 14 1s4-10 1-14c-7-8-11-18-11-29z" fill="white" fill-opacity="0.9"/>
  
  <!-- Circuit IA -->
  <circle cx="96" cy="100" r="4" fill="#667eea"/>
  <circle cx="128" cy="88" r="4" fill="#764ba2"/>
  <circle cx="160" cy="100" r="4" fill="#667eea"/>
  <circle cx="128" cy="112" r="4" fill="#764ba2"/>
  
  <!-- Connections -->
  <line x1="96" y1="100" x2="128" y2="88" stroke="#667eea" stroke-width="2"/>
  <line x1="128" y1="88" x2="160" y2="100" stroke="#667eea" stroke-width="2"/>
  <line x1="160" y1="100" x2="128" y2="112" stroke="#667eea" stroke-width="2"/>
  <line x1="128" y1="112" x2="96" y2="100" stroke="#667eea" stroke-width="2"/>
  
  <!-- Texte DC -->
  <text x="128" y="180" text-anchor="middle" fill="white" font-family="Arial, sans-serif" font-size="32" font-weight="bold">DC</text>
  <text x="128" y="200" text-anchor="middle" fill="white" fill-opacity="0.8" font-family="Arial, sans-serif" font-size="12">IA</text>
</svg>